<?xml version="1.0" standalone="no"?>
<!DOCTYPE svg PUBLIC "-//W3C//DTD SVG 20010904//EN"
 "http://www.w3.org/TR/2001/REC-SVG-20010904/DTD/svg10.dtd">
<svg version="1.0" xmlns="http://www.w3.org/2000/svg"
 width="100.000000pt" height="100.000000pt" viewBox="0 0 100.000000 100.000000"
 preserveAspectRatio="xMidYMid meet">

<g transform="translate(0.000000,100.000000) scale(0.100000,-0.100000)"
fill="#000000" stroke="none">
<path d="M562 927 c-34 -23 -62 -46 -62 -52 0 -14 121 -96 132 -89 4 3 8 14 8
25 0 18 8 19 101 19 139 0 166 -14 199 -103 14 -40 30 -24 30 31 0 59 -25 110
-69 139 -30 21 -46 23 -147 23 -106 0 -114 1 -114 19 0 34 -15 32 -78 -12z
m174 -37 c121 0 163 -11 183 -49 10 -18 9 -18 -26 0 -51 26 -267 28 -281 3 -8
-14 -12 -13 -37 8 l-28 24 28 23 c25 19 30 20 37 6 7 -12 31 -15 124 -15z"/>
<path d="M153 726 l-28 -24 0 -202 0 -202 28 -24 28 -24 319 0 319 0 28 24 28
24 0 202 0 202 -28 24 -28 24 -319 0 -319 0 -28 -24z m217 -21 c0 -12 -13 -15
-55 -15 -50 0 -56 -2 -65 -25 -5 -14 -21 -30 -35 -35 -24 -9 -25 -13 -25 -97
0 -81 2 -89 22 -98 12 -6 26 -19 32 -30 16 -30 27 -35 79 -35 35 0 47 -4 47
-15 0 -12 -16 -15 -86 -15 -130 0 -124 -10 -124 190 0 150 2 170 18 179 9 6
56 11 105 11 71 0 87 -3 87 -15z m220 -205 l0 -220 -90 0 -90 0 0 220 0 220
90 0 90 0 0 -220z m231 210 c18 -10 19 -23 19 -180 0 -200 6 -190 -124 -190
-70 0 -86 3 -86 15 0 11 12 15 48 15 51 0 62 5 78 35 6 11 20 24 32 30 20 9
22 17 22 98 0 84 -1 88 -25 97 -14 5 -30 21 -35 35 -9 23 -15 25 -65 25 -42 0
-55 3 -55 15 0 12 16 15 86 15 47 0 94 -5 105 -10z m-451 -175 l0 -125 -40 0
c-33 0 -47 7 -75 35 -32 31 -35 39 -35 94 0 51 3 61 21 66 11 4 25 18 31 31 9
20 18 24 55 24 l43 0 0 -125z m358 101 c6 -13 20 -27 31 -31 18 -5 21 -15 21
-66 0 -55 -3 -63 -35 -94 -28 -28 -42 -35 -75 -35 l-40 0 0 125 0 125 43 0
c37 0 46 -4 55 -24z m-440 -326 c66 0 82 -3 82 -15 0 -12 -16 -15 -86 -15 -84
0 -124 10 -124 32 0 6 9 8 23 4 12 -3 59 -6 105 -6z m552 0 c0 -20 -42 -30
-124 -30 -69 0 -86 3 -86 15 0 11 20 15 93 18 50 1 98 4 105 5 6 1 12 -2 12
-8z"/>
<path d="M468 591 c-30 -30 -37 -71 -15 -90 8 -6 28 -14 46 -17 46 -10 38 -37
-13 -44 -39 -5 -64 -30 -30 -30 9 0 22 -8 29 -17 12 -16 15 -14 44 12 33 32
41 74 18 94 -8 6 -28 14 -46 17 -46 10 -38 37 13 44 41 5 64 30 28 30 -11 0
-22 7 -26 15 -8 21 -17 19 -48 -14z"/>
<path d="M36 293 c-13 -13 -5 -99 12 -133 9 -19 32 -45 51 -57 30 -21 46 -23
147 -23 106 0 114 -1 114 -19 0 -11 4 -22 8 -25 11 -7 132 75 132 89 0 14
-121 96 -132 89 -4 -3 -8 -14 -8 -25 0 -18 -8 -19 -101 -19 -118 0 -159 14
-183 65 -9 18 -16 38 -16 43 0 14 -15 23 -24 15z m226 -153 c95 0 119 3 126
15 7 14 12 13 37 -6 l28 -23 -28 -24 c-25 -21 -29 -22 -37 -8 -7 13 -29 16
-124 16 -121 0 -163 11 -183 49 -10 18 -9 18 26 0 30 -15 60 -19 155 -19z"/>
</g>
</svg>
