<?xml version="1.0" standalone="no"?>
<!DOCTYPE svg PUBLIC "-//W3C//DTD SVG 20010904//EN"
 "http://www.w3.org/TR/2001/REC-SVG-20010904/DTD/svg10.dtd">
<svg version="1.0" xmlns="http://www.w3.org/2000/svg"
 width="100.000000pt" height="100.000000pt" viewBox="0 0 100.000000 100.000000"
 preserveAspectRatio="xMidYMid meet">

<g transform="translate(0.000000,100.000000) scale(0.100000,-0.100000)"
fill="#000000" stroke="none">
<path d="M81 956 c-41 -22 -50 -53 -51 -162 0 -99 0 -101 31 -130 l30 -29 18
24 19 24 11 -22 c9 -15 18 -20 32 -16 18 6 19 -1 19 -222 0 -226 0 -228 24
-258 24 -30 24 -30 45 -11 20 18 22 18 41 1 19 -17 21 -17 40 0 19 17 21 17
41 -1 21 -19 21 -19 45 11 36 46 31 73 -8 38 -17 -15 -19 -15 -38 2 -19 17
-21 17 -40 0 -19 -17 -21 -17 -41 1 -21 19 -21 18 -39 -3 -36 -44 -39 -13 -42
353 -2 192 -7 357 -12 367 -8 16 7 17 236 17 262 0 283 -4 290 -53 2 -12 10
-22 18 -22 25 0 12 47 -21 78 l-29 27 -298 0 c-227 -1 -303 -4 -321 -14z m84
-41 c23 -22 25 -32 25 -110 0 -48 -5 -95 -11 -107 l-11 -20 -22 21 -23 21 -18
-21 c-18 -19 -20 -19 -32 -3 -8 11 -13 50 -13 106 0 81 2 91 25 113 13 14 31
25 40 25 9 0 27 -11 40 -25z"/>
<path d="M270 816 c0 -12 11 -16 46 -16 59 0 55 24 -4 28 -33 2 -42 0 -42 -12z"/>
<path d="M397 824 c-20 -20 4 -24 126 -22 170 4 173 22 4 26 -68 1 -126 -1
-130 -4z"/>
<path d="M635 734 c-82 -101 -85 -113 -23 -114 22 0 27 -5 30 -27 5 -43 23
-28 23 19 0 36 -3 43 -24 48 -22 5 -22 7 24 63 26 31 51 57 55 57 4 0 28 -27
54 -59 44 -56 45 -60 24 -63 -20 -3 -23 -10 -26 -52 -2 -36 0 -47 10 -44 7 3
14 17 16 31 3 23 8 27 33 27 52 0 45 24 -32 120 -40 49 -76 90 -80 90 -3 0
-42 -43 -84 -96z"/>
<path d="M273 718 c2 -8 20 -13 42 -13 22 0 40 5 43 13 2 8 -10 12 -43 12 -33
0 -45 -4 -42 -12z"/>
<path d="M393 718 c2 -9 28 -13 82 -13 54 0 80 4 83 13 3 9 -18 12 -83 12 -65
0 -86 -3 -82 -12z"/>
<path d="M270 625 c0 -13 9 -16 43 -13 23 2 42 8 42 13 0 6 -19 11 -42 13 -34
3 -43 0 -43 -13z"/>
<path d="M397 634 c-15 -16 9 -24 69 -24 50 0 64 3 64 15 0 12 -14 15 -63 15
-35 0 -67 -3 -70 -6z"/>
<path d="M270 536 c0 -12 11 -16 46 -16 59 0 55 24 -4 28 -33 2 -42 0 -42 -12z"/>
<path d="M397 544 c-18 -19 0 -24 79 -24 64 0 85 3 82 13 -5 13 -148 23 -161
11z"/>
<path d="M615 507 c-213 -102 -182 -413 46 -467 179 -43 342 120 299 299 -26
110 -112 181 -228 188 -56 3 -76 0 -117 -20z m170 -18 c25 -7 58 -29 86 -58
37 -36 49 -57 59 -101 26 -118 -43 -229 -164 -261 -137 -37 -280 92 -263 239
7 67 53 131 116 164 57 30 102 35 166 17z"/>
<path d="M645 451 c-166 -76 -145 -303 33 -350 129 -35 256 93 221 222 -31
118 -149 177 -254 128z m139 -31 c110 -53 117 -207 14 -270 -46 -28 -122 -27
-165 2 -36 25 -73 90 -73 129 0 49 42 112 90 137 54 27 82 28 134 2z"/>
<path d="M704 395 c-4 -11 -16 -26 -26 -33 -13 -10 -18 -24 -16 -44 3 -33 15
-43 61 -53 46 -9 32 -39 -21 -43 -28 -2 -42 -8 -42 -18 0 -8 9 -14 19 -14 10
0 21 -7 25 -15 3 -8 10 -15 16 -15 5 0 10 7 10 15 0 8 4 15 9 15 18 0 41 31
41 55 0 27 -34 55 -67 55 -16 0 -23 6 -23 19 0 16 8 20 42 23 41 3 68 28 30
28 -11 0 -26 10 -35 23 -15 22 -15 22 -23 2z"/>
<path d="M270 434 c0 -12 9 -14 42 -12 59 4 63 28 4 28 -35 0 -46 -4 -46 -16z"/>
<path d="M393 438 c2 -7 19 -13 37 -13 18 0 35 6 38 13 2 8 -9 12 -38 12 -29
0 -40 -4 -37 -12z"/>
<path d="M270 346 c0 -12 11 -16 46 -16 59 0 55 24 -4 28 -33 2 -42 0 -42 -12z"/>
<path d="M397 354 c-14 -14 -7 -25 13 -22 12 2 21 8 21 13 0 12 -24 18 -34 9z"/>
</g>
</svg>
