<?xml version="1.0" standalone="no"?>
<!DOCTYPE svg PUBLIC "-//W3C//DTD SVG 20010904//EN"
 "http://www.w3.org/TR/2001/REC-SVG-20010904/DTD/svg10.dtd">
<svg version="1.0" xmlns="http://www.w3.org/2000/svg"
 width="100.000000pt" height="100.000000pt" viewBox="0 0 100.000000 100.000000"
 preserveAspectRatio="xMidYMid meet">

<g transform="translate(0.000000,100.000000) scale(0.100000,-0.100000)"
fill="#000000" stroke="none">
<path d="M376 955 c-9 -24 -7 -68 4 -85 16 -25 32 3 28 50 -3 45 -21 63 -32
35z"/>
<path d="M737 964 c-4 -4 -7 -36 -7 -71 l0 -63 -35 0 c-23 0 -35 -5 -35 -14 0
-18 138 -186 153 -186 17 0 159 178 152 190 -3 6 -21 10 -40 10 l-34 0 -3 68
c-4 95 -22 84 -26 -15 -3 -83 -3 -83 23 -83 14 0 25 -3 25 -8 0 -9 -88 -116
-98 -119 -6 -2 -92 99 -100 118 -2 4 9 9 25 11 l28 3 0 79 c0 73 -9 99 -28 80z"/>
<path d="M226 933 c-3 -3 -6 -28 -6 -55 0 -36 4 -48 15 -48 11 0 15 12 15 49
0 47 -9 68 -24 54z"/>
<path d="M536 933 c-3 -3 -6 -28 -6 -55 0 -36 4 -48 15 -48 11 0 15 12 15 49
0 47 -9 68 -24 54z"/>
<path d="M319 817 c-93 -35 -148 -93 -170 -181 -11 -45 -7 -82 9 -72 5 3 14
29 21 59 36 162 226 227 350 120 48 -41 61 -62 75 -125 12 -49 29 -63 34 -28
11 66 -62 176 -142 214 -50 24 -132 30 -177 13z"/>
<path d="M355 760 c-47 -11 -92 -37 -113 -67 -23 -32 -46 -109 -37 -123 12
-20 23 -9 34 33 41 167 256 172 304 8 15 -52 33 -54 30 -3 -7 94 -121 175
-218 152z"/>
<path d="M358 668 c-16 -17 -28 -41 -28 -54 0 -25 34 -54 62 -54 28 0 21 27
-8 34 -43 11 -27 40 24 44 28 2 42 8 42 18 0 8 -9 14 -19 14 -10 0 -21 7 -25
15 -8 21 -17 18 -48 -17z"/>
<path d="M51 624 c-20 -25 -21 -39 -21 -275 0 -263 4 -288 47 -308 16 -7 133
-11 354 -11 l330 0 24 25 c20 20 25 34 25 78 0 40 4 56 15 61 22 8 22 158 0
176 -10 8 -15 31 -15 66 0 48 -3 56 -30 76 -24 17 -30 29 -30 58 0 41 -29 80
-60 80 -27 0 -25 -14 5 -34 19 -12 25 -25 25 -51 l0 -35 -313 0 c-297 0 -315
1 -331 19 -21 23 -14 56 15 71 25 14 25 30 0 30 -11 0 -29 -12 -40 -26z m710
-135 c15 -8 19 -21 19 -64 l0 -55 -64 0 c-73 0 -110 -21 -119 -67 -7 -35 15
-88 41 -102 12 -6 48 -11 81 -11 l61 0 0 -49 c0 -84 14 -81 -353 -81 -276 0
-326 2 -345 16 -22 15 -22 20 -22 222 l0 207 341 -3 c202 -2 349 -7 360 -13z
m49 -209 l0 -60 -72 0 c-81 0 -108 15 -108 61 0 46 22 59 106 59 l74 0 0 -60z"/>
</g>
</svg>
