<?xml version="1.0" encoding="UTF-8"?>
<!DOCTYPE svg PUBLIC "-//W3C//DTD SVG 1.1//EN" "http://www.w3.org/Graphics/SVG/1.1/DTD/svg11.dtd">
<svg xmlns="http://www.w3.org/2000/svg" version="1.1" width="100px" height="100px" style="shape-rendering:geometricPrecision; text-rendering:geometricPrecision; image-rendering:optimizeQuality; fill-rule:evenodd; clip-rule:evenodd" xmlns:xlink="http://www.w3.org/1999/xlink">
<g><path style="opacity:0.936" fill="#000000" d="M 42.5,13.5 C 47.1785,13.3342 51.8452,13.5008 56.5,14C 58.6667,14.8333 60.1667,16.3333 61,18.5C 61.6667,35.5 61.6667,52.5 61,69.5C 60.2155,71.286 59.0488,72.786 57.5,74C 52.1667,74.6667 46.8333,74.6667 41.5,74C 40,73.1667 38.8333,72 38,70.5C 37.3333,53.1667 37.3333,35.8333 38,18.5C 39.025,16.313 40.525,14.6464 42.5,13.5 Z"/></g>
<g><path style="opacity:0.935" fill="#000000" d="M 68.5,30.5 C 73.8437,30.334 79.1771,30.5006 84.5,31C 85.6667,32.1667 86.8333,33.3333 88,34.5C 88.6667,46.5 88.6667,58.5 88,70.5C 87.5,72.3333 86.3333,73.5 84.5,74C 79.1667,74.6667 73.8333,74.6667 68.5,74C 66.9512,72.786 65.7845,71.286 65,69.5C 64.3333,58.1667 64.3333,46.8333 65,35.5C 65.9973,33.6769 67.1639,32.0103 68.5,30.5 Z"/></g>
<g><path style="opacity:0.919" fill="#000000" d="M 16.5,44.5 C 21.6989,44.0144 26.6989,44.6811 31.5,46.5C 32.5836,47.6651 33.4169,48.9984 34,50.5C 34.6667,56.8333 34.6667,63.1667 34,69.5C 33.2155,71.286 32.0488,72.786 30.5,74C 25.1667,74.6667 19.8333,74.6667 14.5,74C 12.6667,73.5 11.5,72.3333 11,70.5C 10.3333,63.5 10.3333,56.5 11,49.5C 12.1065,46.887 13.9399,45.2203 16.5,44.5 Z"/></g>
<g><path style="opacity:0.873" fill="#000000" d="M 5.5,78.5 C 34.8352,78.3334 64.1686,78.5 93.5,79C 94.8333,81 94.8333,83 93.5,85C 64.1667,85.6667 34.8333,85.6667 5.5,85C 4.23204,82.8368 4.23204,80.6702 5.5,78.5 Z"/></g>
</svg>
